<?xml version="1.0" encoding="UTF-8"?>
<svg width="45px" height="35px" viewBox="0 0 45 35" version="1.1" xmlns="http://www.w3.org/2000/svg" xmlns:xlink="http://www.w3.org/1999/xlink">
    <!-- Generator: Sketch 48.1 (47250) - http://www.bohemiancoding.com/sketch -->
    <title>Shape</title>
    <desc>Created with Sketch.</desc>
    <defs></defs>
    <g id="Pantalla-de-captura" stroke="none" stroke-width="1" fill="none" fill-rule="evenodd" transform="translate(-709.000000, -797.000000)">
        <path d="M731.50229,807.992161 C726.988055,807.992161 723.323396,811.677494 723.323396,816.227516 C723.323396,820.772914 726.983463,824.46287 731.50229,824.46287 C736.021117,824.46287 739.681184,820.777538 739.681184,816.227516 C739.681184,811.682118 736.021117,807.992161 731.50229,807.992161 Z M717.867739,797.689876 L713.10552,797.689876 L713.10552,799.766055 L717.867739,799.766055 L717.867739,797.689876 Z M751.102244,801.819113 L742.193174,801.819113 C741.518105,801.328969 740.714452,800.46428 739.975091,798.92911 C739.079592,797.070259 735.855794,797.010147 735.855794,797.010147 L725.468002,797.010147 C725.468002,797.010147 724.40718,796.746579 723.158074,798.90599 C722.31309,800.3718 721.546175,801.278105 720.825183,801.814489 L711.902336,801.814489 C710.299622,801.814489 709,803.201691 709,804.912573 L709,828.901916 C709,830.612798 710.299622,832 711.902336,832 L751.097652,832 C752.700366,832 753.999988,830.612798 753.999988,828.901916 L753.999988,804.912573 C754.00458,803.206315 752.704958,801.819113 751.102244,801.819113 Z M731.497698,826.534425 C725.853756,826.534425 721.275229,821.924291 721.275229,816.241388 C721.275229,810.558485 725.853756,805.943727 731.497698,805.943727 C737.14164,805.943727 741.720167,810.553861 741.720167,816.236764 C741.720167,821.919667 737.14164,826.534425 731.497698,826.534425 Z M746.15174,807.996785 C745.210318,807.996785 744.452588,807.2292 744.452588,806.276655 C744.452588,805.328734 745.21491,804.556525 746.15174,804.556525 C747.093163,804.556525 747.855485,805.32411 747.855485,806.276655 C747.855485,807.2292 747.093163,807.996785 746.15174,807.996785 Z" id="Shape" fill="#FFFFFF" fill-rule="nonzero"></path>
    </g>
</svg>