<?xml version="1.0" encoding="UTF-8"?>
<svg width="45px" height="35px" viewBox="0 0 45 35" version="1.1" xmlns="http://www.w3.org/2000/svg" xmlns:xlink="http://www.w3.org/1999/xlink">
    <!-- Generator: Sketch 48.1 (47250) - http://www.bohemiancoding.com/sketch -->
    <title>Group 2</title>
    <desc>Created with Sketch.</desc>
    <defs></defs>
    <g id="Pantalla-de-captura" stroke="none" stroke-width="1" fill="none" fill-rule="evenodd" transform="translate(-709.000000, -797.000000)">
        <g id="Group-2" transform="translate(709.000000, 797.000000)" fill="#FFFFFF" fill-rule="nonzero">
            <path d="M22.5022901,10.9921613 C17.9880552,10.9921613 14.3233965,14.677494 14.3233965,19.2275159 C14.3233965,23.7729137 17.9834629,27.4628704 22.5022901,27.4628704 C27.0211173,27.4628704 30.6811837,23.7775377 30.6811837,19.2275159 C30.6811837,14.682118 27.0211173,10.9921613 22.5022901,10.9921613 Z M8.86773922,0.689876172 L4.10551986,0.689876172 L4.10551986,2.76605482 L8.86773922,2.76605482 L8.86773922,0.689876172 Z M42.102244,4.81911345 L33.193174,4.81911345 C32.5181053,4.32896882 31.7144521,3.46427972 30.9750911,1.92910976 C30.0795918,0.0702593808 26.8557944,0.0101473041 26.8557944,0.0101473041 L16.4680025,0.0101473041 C16.4680025,0.0101473041 15.4071803,-0.253421033 14.1580735,1.90598973 C13.3130896,3.3717996 12.5461748,4.27810476 11.8251831,4.81448944 L2.90233619,4.81448944 C1.29962206,4.81448944 0,6.20169121 0,7.9125734 L0,31.901916 C0,33.6127982 1.29962206,35 2.90233619,35 L42.0976517,35 C43.7003658,35 44.9999879,33.6127982 44.9999879,31.901916 L44.9999879,7.9125734 C45.0045802,6.20631522 43.7049581,4.81911345 42.102244,4.81911345 Z M22.4976978,29.534425 C16.853756,29.534425 12.2752289,24.9242911 12.2752289,19.2413879 C12.2752289,13.5584846 16.853756,8.94372672 22.4976978,8.94372672 C28.1416395,8.94372672 32.7201667,13.5538606 32.7201667,19.2367639 C32.7201667,24.9196671 28.1416395,29.534425 22.4976978,29.534425 Z M37.1517402,10.9967853 C36.2103178,10.9967853 35.4525876,10.2292004 35.4525876,9.27665514 C35.4525876,8.32873393 36.2149101,7.55652494 37.1517402,7.55652494 C38.0931625,7.55652494 38.855485,8.32410992 38.855485,9.27665514 C38.855485,10.2292004 38.0931625,10.9967853 37.1517402,10.9967853 Z" id="Shape"></path>
        </g>
    </g>
</svg>