<?xml version="1.0" encoding="UTF-8"?>
<svg width="107px" height="39px" viewBox="0 0 107 39" version="1.1" xmlns="http://www.w3.org/2000/svg" xmlns:xlink="http://www.w3.org/1999/xlink">
    <!-- Generator: Sketch 48.1 (47250) - http://www.bohemiancoding.com/sketch -->
    <title>logobiko</title>
    <desc>Created with Sketch.</desc>
    <defs></defs>
    <g id="home" stroke="none" stroke-width="1" fill="none" fill-rule="evenodd" transform="translate(-75.000000, -153.000000)">
        <g id="logobiko" transform="translate(75.000000, 153.000000)" fill="#FFFFFF" fill-rule="nonzero">
            <g id="Primer_plano">
                <path d="M99.6760896,8.96168852 C100.308507,8.52629508 100.973504,8.09921311 101.481036,7.566 C101.881567,7.12772951 102.167113,6.59547541 102.076722,6.09678689 C101.882525,5.02492623 100.466931,4.77654098 99.2046507,5.02940164 C98.4051851,5.18955738 97.6325493,5.5517459 97.0330299,6.04340164 C96.7877284,6.24990984 96.5430657,6.49509836 96.4475642,6.76266393 C96.3220388,7.11494262 96.6248328,7.31953279 97.0557075,7.21627869 C97.3837343,7.13795902 97.6906806,6.94743443 97.9254418,6.73964754 C98.2422896,6.4624918 98.5268776,6.14985246 98.9957612,6.06034426 C99.3193164,5.99864754 99.5991134,6.09103279 99.5879343,6.36690984 C99.5780328,6.60730328 99.3509373,6.80709836 99.1286328,6.97556557 C98.9436985,7.11558197 98.7523761,7.24952459 98.5600955,7.3825082 C97.8925433,7.86009836 97.2307403,8.35782787 96.7196955,8.94538525 C96.4817403,9.22765574 96.3006388,9.53070492 96.1805433,9.84590164 C96.0495881,10.2039344 95.9949701,10.5763525 96.0738627,10.920959 C96.1866119,11.4110164 96.6395254,11.7332459 97.2738597,11.7661721 C98.4403194,11.799418 99.6329701,11.7095902 100.824024,11.542082 C101.45197,11.4410656 102.105149,11.0833525 102.159128,10.5351148 C102.217899,9.94244262 101.527988,9.74168852 100.874809,9.81553279 C99.9986866,9.92933607 99.1238418,10.0274754 98.2509134,10.1067541 C98.6099224,9.66113115 99.1759045,9.30597541 99.6760896,8.96168852 Z M84.8452507,19.9040656 C82.9690776,19.9040656 73.7728269,29.034541 83.2801761,29.034541 C91.075206,29.034541 86.5620418,19.9040656 84.8452507,19.9040656 Z M22.2183104,19.4478934 C20.1479403,19.4478934 9.22595522,28.6979262 20.4293343,28.6979262 C29.3595224,28.6979262 24.2775015,19.4478934 22.2183104,19.4478934 Z M41.4923642,11.779918 C42.8517433,13.5477049 43.6278925,15.4379262 44.5892955,17.4208525 C45.0377373,17.1443361 45.6484358,12.168959 45.7854597,11.3771311 C46.2134597,8.90318852 47.7344567,2.29140984 50.9728836,2.29140984 C52.6957433,2.29140984 53.8564537,4.02083607 54.4246716,5.45360656 C55.2084866,7.43077869 55.7080328,9.38557377 56.0708746,11.4666393 C56.2666687,12.5893279 56.6250388,15.0856475 56.9137791,16.0964508 C59.3425194,14.9596967 64.0093164,12.4016803 64.089806,12.3572459 C65.6373134,11.503082 68.9239701,12.5739836 67.2643522,15.5344672 C65.9627851,17.8568852 60.2940209,23.1321148 60.2940209,23.7532377 C60.2940209,24.1093525 65.2537104,26.9227869 65.9602299,27.0672787 C66.0701045,26.8809098 66.2317224,26.676 66.3096567,26.4746066 C66.9174806,24.9027787 67.191209,23.4015984 68.0024925,21.8543852 C70.8956448,16.339082 77.9854328,9.69917213 84.6216687,9.8785082 C86.6674448,9.93381148 88.5988746,10.4794918 90.3428149,11.3905574 C90.0029701,10.2381393 90.0064836,8.97671311 90.4999612,7.68971311 C92.2678567,3.07972131 98.955197,0.866631148 103.158221,2.65551639 C106.149749,3.92877049 107.621239,6.7665 106.372373,10.022041 C104.838919,14.0198607 100.194481,17.3438115 96.0208418,16.5001967 C98.7919821,20.5184754 99.8837015,25.7425574 98.2362209,30.3471148 C95.8898866,36.9045492 86.9232866,38.7023852 80.7757373,38.7023852 C78.969194,38.7023852 72.6415015,37.5224754 72.4578448,37.5387787 C69.0737701,37.8421475 67.1675731,38.1531885 63.7288806,37.2696148 L57.5375731,34.8739918 C56.8802418,34.7010492 56.0935522,36.0510246 55.664594,36.4413443 C52.8027433,39.0460328 48.3317403,37.8009098 45.4724448,36.0385574 C42.2036746,38.1225 36.4729463,38.9421393 33.2137582,36.3534344 C32.6356388,35.8943852 31.3484448,33.9648443 31.1622328,33.8903607 C24.2452418,38.2785 13.8662418,39.5993852 5.85082388,37.5601967 C4.60962388,37.5413361 1.86850746,35.6137131 1.35969851,34.4887869 C-0.0332179104,31.4103443 0.137343284,28.4325984 0.619002985,25.0674098 C1.1447403,21.3956557 1.86403582,17.7095164 2.49805075,14.0531066 C2.98002985,11.2706803 4.81020896,2.20222131 8.31022687,2.20222131 C12.7192657,2.20222131 12.9760657,11.054582 14.3472627,11.6009016 C15.5664239,11.2256066 17.9542806,10.7953279 19.221991,10.7953279 C25.0673851,10.7953279 28.949409,14.017623 32.6519284,18.0646721 C32.764997,18.1880656 32.9144776,18.293877 33.0403224,18.4038443 C33.3472687,18.1327623 35.4891851,13.2529672 36.483806,11.9141803 L36.3298537,11.5289754 C30.0858448,8.42911475 34.3984239,-1.86272951 41.4636179,0.705196721 C43.5327104,1.45738525 44.8908119,3.61293443 44.8908119,5.78222951 C44.8911313,9.38781148 41.5431493,11.2988115 41.4923642,11.779918 Z" id="Shape"></path>
            </g>
        </g>
    </g>
</svg>